<svg xmlns="http://www.w3.org/2000/svg" width="33" height="31" fill="none"><g clip-path="url(#white-logo-icon_svg__a)"><path fill="#fff" d="M10.8 14.6 3.1 27h4.2c4.1 0 4.4-.2 7.6-5.7 3.7-6.1 3.3-6.1 7.5.2.8 1.1 1.7 1.7 2.1 1.3.6-.6-5.1-10.8-6-10.8-.2 0-2.2 2.9-4.4 6.5-2.3 3.6-4.6 6.5-5.2 6.5-.6 0-.8-.7-.5-1.7.8-2 9.7-16.3 10.2-16.3S29 23.3 29 24.2c0 .4-1.7.8-3.8.8-3.1 0-4.1-.5-5.2-2.5-.8-1.5-1.7-2.2-2.3-1.6-.5.5-.2 1.9.8 3.5 1.6 2.4 2.3 2.6 8.6 2.6h6.8l-7.6-12.3C22.2 8 18.7 2.4 18.6 2.3c-.1-.1-3.6 5.4-7.8 12.3Z"></path></g><defs><clipPath id="white-logo-icon_svg__a"><path fill="#fff" d="M0 0h33v31H0z"></path></clipPath></defs></svg>