<svg xmlns="http://www.w3.org/2000/svg" width="149" height="23" fill="none"><path fill="#fff" d="M.616 10.84c0-1.261.235-2.369.704-3.322.484-.953 1.137-1.687 1.958-2.2.821-.513 1.738-.77 2.75-.77.865 0 1.62.176 2.266.528.66.352 1.166.814 1.518 1.386V4.724h3.762V17H9.812v-1.738c-.367.572-.88 1.034-1.54 1.386-.645.352-1.4.528-2.266.528a5.045 5.045 0 0 1-2.728-.77c-.821-.528-1.474-1.269-1.958-2.222-.47-.968-.704-2.083-.704-3.344Zm9.196.022c0-.939-.264-1.68-.792-2.222a2.503 2.503 0 0 0-1.892-.814c-.748 0-1.386.271-1.914.814-.513.528-.77 1.261-.77 2.2 0 .939.257 1.687.77 2.244a2.573 2.573 0 0 0 1.914.814c.748 0 1.379-.271 1.892-.814.528-.543.792-1.283.792-2.222Zm22.148-6.27c1.525 0 2.735.462 3.63 1.386.909.924 1.364 2.207 1.364 3.85V17h-3.74v-6.666c0-.792-.213-1.4-.638-1.826-.411-.44-.983-.66-1.716-.66-.734 0-1.313.22-1.738.66-.411.425-.616 1.034-.616 1.826V17h-3.74v-6.666c0-.792-.213-1.4-.638-1.826-.411-.44-.983-.66-1.716-.66-.734 0-1.313.22-1.738.66-.411.425-.616 1.034-.616 1.826V17h-3.762V4.724h3.762v1.54c.381-.513.88-.917 1.496-1.21.616-.308 1.312-.462 2.09-.462.924 0 1.745.198 2.464.594.733.396 1.305.96 1.716 1.694a4.946 4.946 0 0 1 1.738-1.65 4.696 4.696 0 0 1 2.398-.638Zm11.387 1.87a4.084 4.084 0 0 1 1.518-1.386c.645-.352 1.4-.528 2.266-.528 1.012 0 1.928.257 2.75.77.821.513 1.466 1.247 1.936 2.2.484.953.726 2.06.726 3.322 0 1.261-.242 2.376-.726 3.344-.47.953-1.115 1.694-1.936 2.222-.822.513-1.738.77-2.75.77-.851 0-1.606-.176-2.266-.528-.646-.352-1.152-.807-1.518-1.364v7.568h-3.762V4.724h3.762v1.738Zm5.368 4.378c0-.939-.264-1.672-.792-2.2-.514-.543-1.152-.814-1.914-.814-.748 0-1.386.271-1.914.814-.514.543-.77 1.283-.77 2.222 0 .939.256 1.68.77 2.222a2.573 2.573 0 0 0 1.914.814c.748 0 1.386-.271 1.914-.814.528-.557.792-1.305.792-2.244ZM58.278.72V17h-3.762V.72h3.762Zm14.299 9.944c0 .352-.022.719-.066 1.1h-8.514c.058.763.3 1.35.726 1.76.44.396.975.594 1.606.594.938 0 1.591-.396 1.958-1.188h4.004a5.422 5.422 0 0 1-1.122 2.178 5.462 5.462 0 0 1-2.002 1.518c-.807.367-1.709.55-2.706.55-1.203 0-2.274-.257-3.212-.77a5.477 5.477 0 0 1-2.2-2.2c-.528-.953-.792-2.068-.792-3.344 0-1.276.256-2.39.77-3.344a5.477 5.477 0 0 1 2.2-2.2c.938-.513 2.016-.77 3.234-.77 1.188 0 2.244.25 3.168.748a5.3 5.3 0 0 1 2.156 2.134c.528.924.792 2.002.792 3.234Zm-3.85-.99c0-.645-.22-1.159-.66-1.54-.44-.381-.99-.572-1.65-.572-.631 0-1.166.183-1.606.55-.426.367-.69.887-.792 1.562h4.708Zm21.177 3.674h-6.996L81.566 17h-1.628l5.61-15.18h1.738L92.874 17h-1.628l-1.342-3.652Zm-.462-1.276-3.036-8.316-3.036 8.316h6.072Zm5.2-1.1c0-1.232.25-2.31.748-3.234.499-.939 1.18-1.657 2.046-2.156.88-.513 1.87-.77 2.97-.77 1.056 0 2.009.257 2.86.77s1.474 1.18 1.87 2.002V.72h1.54V17h-1.54v-2.684c-.367.836-.968 1.525-1.804 2.068-.836.528-1.819.792-2.948.792-1.1 0-2.09-.257-2.97-.77-.865-.513-1.547-1.24-2.046-2.178-.484-.939-.726-2.024-.726-3.256Zm10.494.022c0-.968-.198-1.819-.594-2.552a4.218 4.218 0 0 0-1.628-1.694 4.353 4.353 0 0 0-2.244-.594c-.85 0-1.613.19-2.288.572-.675.381-1.21.939-1.606 1.672-.381.719-.572 1.577-.572 2.574 0 .983.19 1.848.572 2.596.396.733.931 1.298 1.606 1.694.675.381 1.437.572 2.288.572.821 0 1.569-.198 2.244-.594a4.218 4.218 0 0 0 1.628-1.694c.396-.733.594-1.584.594-2.552Zm19.356-6.226c1.408 0 2.552.447 3.432 1.342.894.88 1.342 2.163 1.342 3.85V17h-1.518v-6.864c0-1.305-.316-2.303-.946-2.992-.631-.69-1.489-1.034-2.574-1.034-1.13 0-2.032.374-2.706 1.122-.675.748-1.012 1.833-1.012 3.256V17h-1.518v-6.864c0-1.305-.316-2.303-.946-2.992-.631-.69-1.496-1.034-2.596-1.034-1.13 0-2.032.374-2.706 1.122-.675.748-1.012 1.833-1.012 3.256V17h-1.54V4.988h1.54v2.068c.381-.748.924-1.313 1.628-1.694.704-.396 1.488-.594 2.354-.594 1.041 0 1.95.25 2.728.748.792.499 1.364 1.232 1.716 2.2.322-.953.872-1.68 1.65-2.178.792-.513 1.686-.77 2.684-.77Zm8.964-2.046a1.08 1.08 0 0 1-.792-.33c-.22-.22-.33-.491-.33-.814 0-.323.11-.587.33-.792.22-.22.484-.33.792-.33.308 0 .572.11.792.33.22.205.33.47.33.792 0 .323-.11.594-.33.814-.22.22-.484.33-.792.33Zm.77 2.266V17h-1.54V4.988h1.54Zm9.119-.22c1.437 0 2.611.447 3.52 1.342.909.88 1.364 2.163 1.364 3.85V17h-1.518v-6.864c0-1.305-.33-2.303-.99-2.992-.645-.69-1.533-1.034-2.662-1.034-1.159 0-2.083.367-2.772 1.1-.689.733-1.034 1.811-1.034 3.234V17h-1.54V4.988h1.54v2.046a3.862 3.862 0 0 1 1.65-1.672c.719-.396 1.533-.594 2.442-.594Z"></path></svg>